<svg width="35" height="20" viewBox="0 0 35 20" fill="none" xmlns="http://www.w3.org/2000/svg">
<mask id="mask0_5_108" style="mask-type:alpha" maskUnits="userSpaceOnUse" x="0" y="0" width="35" height="20">
<rect width="34.2139" height="19.96" fill="#D9D9D9"/>
</mask>
<g mask="url(#mask0_5_108)">
<path d="M33.6017 2.804C33.6017 2.804 12.7162 6.24039 1.18331e-05 1.70312L33.6017 2.804Z" fill="#DD6322"/>
<path d="M33.6028 2.83193C32.2124 3.14884 30.813 3.36809 29.4122 3.55647L28.3598 3.69061L27.3056 3.79758C26.6048 3.87449 25.9005 3.92572 25.196 3.95784C23.7883 4.03381 22.3798 4.02376 20.9734 4.06L16.7526 4.18934C16.3996 4.20614 16.0492 4.21408 15.696 4.21177L14.6397 4.2114L13.5828 4.20515C13.2296 4.20284 12.8788 4.17254 12.5272 4.15917C11.8226 4.12068 11.1177 4.09544 10.4152 4.04222C9.71147 3.97724 9.00981 3.89753 8.30604 3.82299C5.50253 3.43054 2.70097 2.83066 -0.00176852 1.72761C-0.0110008 1.72335 -0.018709 1.70804 -0.0139662 1.69398C-0.010832 1.68143 -0.00117692 1.67245 0.00856289 1.67302C2.76626 2.44865 5.54936 2.91792 8.34481 3.25682C11.1388 3.61634 13.9461 3.75795 16.757 3.89289C17.4592 3.90788 18.162 3.93831 18.8651 3.93637C19.5676 3.92855 20.2711 3.91337 20.9729 3.88056C21.6758 3.85951 22.3771 3.77891 23.0797 3.71961L24.1324 3.6237L25.1834 3.51018L33.5975 2.77907C33.5975 2.77907 33.617 2.78978 33.6193 2.80372C33.6189 2.81696 33.6131 2.82882 33.6028 2.83193Z" fill="#F8FBFC" fill-opacity="0.3"/>
<path d="M34.214 8.4794C34.214 8.4794 19.8037 13.1568 7.08644 8.61729L34.214 8.4794Z" fill="#DD6322"/>
<path d="M34.2174 8.50529C33.1183 8.93643 32.0027 9.27372 30.8778 9.54572C29.7536 9.82358 28.6222 10.0405 27.4844 10.1929C26.9154 10.2595 26.3445 10.2989 25.7743 10.3538C25.4895 10.3842 25.2046 10.3954 24.9191 10.4104L24.0649 10.4691C23.4958 10.5262 22.9265 10.5546 22.3567 10.5962C21.7875 10.6342 21.2174 10.7081 20.6474 10.7211C20.077 10.7473 19.5067 10.7926 18.934 10.8049C18.3621 10.8002 17.7903 10.7955 17.2201 10.7798C16.6472 10.7825 16.0781 10.7175 15.5055 10.6783L14.6485 10.6048C14.3622 10.5852 14.0789 10.5434 13.7939 10.4937L12.0901 10.2023C11.5244 10.0924 10.9636 9.92649 10.4008 9.78491L9.56089 9.5574C9.2821 9.47297 9.00686 9.36274 8.72959 9.26725C8.17768 9.0674 7.62678 8.86019 7.07851 8.6441C7.06767 8.64134 7.06156 8.62453 7.0647 8.61197C7.06783 8.59942 7.07749 8.59044 7.08562 8.59252C7.6499 8.72304 8.21045 8.86024 8.76998 9.00482C9.0492 9.07601 9.32689 9.15826 9.60924 9.2169L10.4534 9.37302L11.2966 9.5365C11.5772 9.58708 11.8554 9.66564 12.1407 9.69262L13.8349 9.93196C16.0937 10.218 18.3641 10.4097 20.641 10.4315C21.2103 10.4546 21.7792 10.4394 22.3492 10.4169C22.9186 10.3981 23.488 10.3697 24.0548 10.2987C25.1902 10.1839 26.3187 9.9567 27.4464 9.75599C29.7035 9.36262 31.9538 8.94656 34.2073 8.45693C34.2175 8.45382 34.2274 8.46395 34.2296 8.47789C34.2319 8.49182 34.2245 8.50518 34.2158 8.50679L34.2174 8.50529Z" fill="#F8FBFC" fill-opacity="0.3"/>
<path d="M31.9166 16.6461C31.9166 16.6461 13.8129 19.5769 2.78188 15.6085L31.9166 16.6461Z" fill="#DD6322"/>
<path d="M31.9179 16.6736C30.7132 16.9558 29.4997 17.15 28.2842 17.3169L27.3718 17.4333L26.4585 17.5247C25.849 17.5906 25.2388 17.6315 24.6305 17.6576C23.4092 17.7144 22.1873 17.6946 20.9678 17.7175C20.3583 17.7223 19.748 17.7536 19.1375 17.7754C18.5269 17.778 17.9177 17.8115 17.3078 17.8296C17.0029 17.8434 16.6973 17.8513 16.3928 17.8519C16.0878 17.8562 15.7822 17.8545 15.4766 17.8529L14.5598 17.8481C14.2542 17.8464 13.9479 17.8198 13.6438 17.8072C13.0329 17.7716 12.4226 17.7514 11.8105 17.704C11.1999 17.6456 10.5908 17.5762 9.9812 17.5104C7.55071 17.1596 5.11912 16.6236 2.78306 15.6388C2.77382 15.6345 2.76611 15.6192 2.77086 15.6052C2.77399 15.5926 2.78364 15.5836 2.79338 15.5842C5.18873 16.2407 7.60024 16.6477 10.02 16.9442C12.441 17.262 14.8744 17.398 17.3106 17.5346C17.9186 17.5504 18.5285 17.5839 19.1386 17.5849C19.7481 17.5801 20.357 17.5694 20.9679 17.544C21.5778 17.5259 22.1851 17.4556 22.7931 17.4008L23.7042 17.3146L24.6158 17.2151C27.0466 16.9937 29.4793 16.8091 31.9169 16.6199C31.9283 16.619 31.9365 16.6306 31.9388 16.6445C31.9383 16.6578 31.9325 16.6696 31.9222 16.6728L31.9179 16.6736Z" fill="#F8FBFC" fill-opacity="0.3"/>
</g>
</svg>
